<?xml version="1.0" encoding="UTF-8" standalone="no"?>
<!-- Created with Inkscape (http://www.inkscape.org/) -->

<svg
   xmlns:dc="http://purl.org/dc/elements/1.1/"
   xmlns:cc="http://creativecommons.org/ns#"
   xmlns:rdf="http://www.w3.org/1999/02/22-rdf-syntax-ns#"
   xmlns:svg="http://www.w3.org/2000/svg"
   xmlns="http://www.w3.org/2000/svg"
   xmlns:sodipodi="http://sodipodi.sourceforge.net/DTD/sodipodi-0.dtd"
   xmlns:inkscape="http://www.inkscape.org/namespaces/inkscape"
   width="48"
   height="48"
   viewBox="0 0 48 48.000001"
   id="svg2"
   version="1.1"
   inkscape:version="0.91 r13725"
   sodipodi:docname="fb.svg">
  <defs
     id="defs4" />
  <sodipodi:namedview
     id="base"
     pagecolor="#ffffff"
     bordercolor="#666666"
     borderopacity="1.0"
     inkscape:pageopacity="0.0"
     inkscape:pageshadow="2"
     inkscape:zoom="7.2816472"
     inkscape:cx="24.007813"
     inkscape:cy="24.018554"
     inkscape:document-units="px"
     inkscape:current-layer="layer1"
     showgrid="true"
     units="px"
     inkscape:window-width="1235"
     inkscape:window-height="1145"
     inkscape:window-x="638"
     inkscape:window-y="103"
     inkscape:window-maximized="0"
     inkscape:snap-global="true"
     inkscape:snap-bbox="true"
     inkscape:bbox-paths="true"
     inkscape:bbox-nodes="true"
     inkscape:snap-nodes="false">
    <inkscape:grid
       type="xygrid"
       id="grid3587" />
  </sodipodi:namedview>
  <metadata
     id="metadata7">
    <rdf:RDF>
      <cc:Work
         rdf:about="">
        <dc:format>image/svg+xml</dc:format>
        <dc:type
           rdf:resource="http://purl.org/dc/dcmitype/StillImage" />
        <dc:title></dc:title>
      </cc:Work>
    </rdf:RDF>
  </metadata>
  <g
     inkscape:label="Layer 1"
     inkscape:groupmode="layer"
     id="layer1"
     transform="translate(0,-1004.3622)">
    <path
       style="opacity:1;fill:#000000;fill-opacity:1;fill-rule:nonzero;stroke:none;stroke-width:4;stroke-linecap:round;stroke-linejoin:round;stroke-miterlimit:4;stroke-dasharray:none;stroke-dashoffset:0;stroke-opacity:1"
       d="M 43.640625,2 4.375,2 C 3.0783982,2.1076423 2.0371094,3.1219396 2.0371094,4.4472656 l 0,38.9941404 c 0,1.397208 1.124277,2.521485 2.5214844,2.521485 l 38.8984372,0 c 1.397208,0 2.521485,-1.124277 2.521485,-2.521485 l 0,-38.9941404 C 45.978516,3.1219396 44.937227,2.1076423 43.640625,2 Z m -8.839844,7.984375 c 1.756223,-0.078493 4.851563,0.00726 4.851563,0.00726 l -0.0059,4.729064 -2.878906,0.04297 c -2.563771,0.35755 -2.518957,2.302537 -2.507812,4.248047 l 0,3.083984 5.197265,0 -0.539062,6.070313 -4.658203,0 0,17.61914 -6.263672,0 0,-17.61914 -2.984375,0 L 25,22.1875 l 2.996094,-0.04102 0,-2.925781 c -0.276895,-6.985336 2.675373,-8.954531 6.804687,-9.236324 z"
       id="path4434"
       transform="translate(0,1004.3622)"
       inkscape:connector-curvature="0"
       sodipodi:nodetypes="ccsssssscccccccccccccccccc" />
  </g>
</svg>
