<?xml version="1.0" encoding="UTF-8" standalone="no"?>
<!-- Created with Inkscape (http://www.inkscape.org/) -->

<svg
   xmlns:dc="http://purl.org/dc/elements/1.1/"
   xmlns:cc="http://creativecommons.org/ns#"
   xmlns:rdf="http://www.w3.org/1999/02/22-rdf-syntax-ns#"
   xmlns:svg="http://www.w3.org/2000/svg"
   xmlns="http://www.w3.org/2000/svg"
   xmlns:sodipodi="http://sodipodi.sourceforge.net/DTD/sodipodi-0.dtd"
   xmlns:inkscape="http://www.inkscape.org/namespaces/inkscape"
   width="48"
   height="48"
   viewBox="0 0 48 48.000001"
   id="svg2"
   version="1.1"
   inkscape:version="0.91 r13725"
   sodipodi:docname="phone.svg">
  <defs
     id="defs4" />
  <sodipodi:namedview
     id="base"
     pagecolor="#ffffff"
     bordercolor="#666666"
     borderopacity="1.0"
     inkscape:pageopacity="0.0"
     inkscape:pageshadow="2"
     inkscape:zoom="14.25"
     inkscape:cx="21.403509"
     inkscape:cy="20.435618"
     inkscape:document-units="px"
     inkscape:current-layer="layer1"
     showgrid="true"
     units="px"
     inkscape:window-width="1630"
     inkscape:window-height="1242"
     inkscape:window-x="53"
     inkscape:window-y="23"
     inkscape:window-maximized="0"
     inkscape:snap-global="false">
    <inkscape:grid
       type="xygrid"
       id="grid3587" />
  </sodipodi:namedview>
  <metadata
     id="metadata7">
    <rdf:RDF>
      <cc:Work
         rdf:about="">
        <dc:format>image/svg+xml</dc:format>
        <dc:type
           rdf:resource="http://purl.org/dc/dcmitype/StillImage" />
        <dc:title />
      </cc:Work>
    </rdf:RDF>
  </metadata>
  <g
     inkscape:label="Layer 1"
     inkscape:groupmode="layer"
     id="layer1"
     transform="translate(0,-1004.3622)">
    <path
       style="fill:#000000;fill-opacity:1;fill-rule:evenodd;stroke:none;stroke-width:1px;stroke-linecap:butt;stroke-linejoin:round;stroke-opacity:1"
       d="m 9.6816279,1008.8105 c 0,0 -5.0893727,5.3781 -5.2818635,7.1119 0,0 7.6865866,16.8363 11.4371156,20.5868 4.264158,4.2643 20.586735,11.4371 20.586735,11.4371 1.476933,0.3211 7.112088,-5.2818 7.112088,-5.2818 0.898736,-0.6422 -7.865598,-10.3055 -9.149899,-9.1498 -2.922132,2.997 -4.11739,5.0323 -4.11739,5.0323 0,0 -7.483596,-2.9089 -10.522021,-5.9473 -3.038557,-3.0385 -5.947359,-10.5222 -5.947359,-10.5222 0,0 2.59227,-1.6775 5.032171,-4.1174 0.963247,-0.7062 -8.250567,-9.9201 -9.1495771,-9.1496 z"
       id="path3589"
       inkscape:connector-curvature="0"
       sodipodi:nodetypes="ccsccccsccc" />
  </g>
</svg>
